<svg version="1.1" xmlns="http://www.w3.org/2000/svg" xmlns:xlink="http://www.w3.org/1999/xlink" xml:space="preserve">
    <g id="stratws-one">
        <svg viewBox="0 0 500 131.382" preserveAspectRatio="xMinYMin meet">
            <path id="s-one-siteware" d="M347.443,93.178c-6.578,2.16-9.904-0.372-11.063-2.674c1.268-1.19,4.176-3.582,11.271-7.938
		            c3.308-2.052,8.21-4.89,14.556-8.492C358.108,84.237,353.963,91.038,347.443,93.178 M381.705,43.918
		            c-0.13-12.696-2.384-25.303-7.447-31.367c-3.163-3.799-6.764-4.705-9.211-4.786c-5.535-0.198-9.96,2.963-19.576,9.95
		            c-12.013,8.723-34.371,24.965-76.884,47.615C211.104,95.972,167.511,93.962,146.68,90.087
		            c-28.961-5.217-47.667-23.269-52.945-28.928l-6.844,15.785c2.86,3.744,15.424,18.167,43.015,26.591
		            c4.792,1.616,14.333,4.202,27.736,5.36c0.662,0.067,1.291,0.166,1.958,0.221v-0.036c3.653,0.275,7.493,0.449,11.699,0.449
		            c25.967,0,62.068-6.035,105.338-29.103c43.566-23.212,66.535-39.898,78.881-48.875c2.479-1.786,5-3.62,6.959-4.931
		            c1.569,5.274,2.822,15.792,1.709,27.362c-2.129,1.201-4.198,2.375-6.154,3.471c-7.774,4.372-14.489,8.131-19.248,11.064
		            c-6.547,4.027-21.199,13.164-15.146,28.107c4.086,10.066,15.873,14.834,28.225,10.776c10.098-3.307,22.901-13.46,28.099-42.692
		            c11.656-6.669,25.42-14.928,36.021-22.155l0.38-21.542C408.731,29.289,398.362,34.092,381.705,43.918" />
            <g id="stratws-one-text">
            <path d="M0,53.441c0-0.899,0.323-1.771,0.969-2.613c0.646-0.843,1.362-1.265,2.149-1.265c0.506,0,1.151,0.353,1.938,1.054
			            c0.787,0.704,1.602,1.49,2.445,2.36c0.843,0.873,2.162,1.659,3.961,2.361c1.798,0.703,3.82,1.054,6.069,1.054
			            c3.652,0,6.518-0.885,8.598-2.655c2.078-1.771,3.119-4.369,3.119-7.797c0-3.09-0.956-5.605-2.866-7.544
			            c-1.912-1.938-4.215-3.414-6.913-4.425c-2.697-1.011-5.409-2.092-8.134-3.245c-2.726-1.152-5.044-2.922-6.954-5.311
			            c-1.911-2.388-2.865-5.465-2.865-9.229c0-2.953,0.56-5.524,1.686-7.71c1.123-2.187,2.626-3.834,4.51-4.941
			            c1.882-1.108,3.835-1.918,5.858-2.429c2.022-0.511,4.186-0.767,6.49-0.767c3.484,0,6.814,0.505,9.989,1.515
			            c3.174,1.011,4.763,2.41,4.763,4.198c0,0.791-0.282,1.638-0.843,2.541c-0.563,0.904-1.293,1.356-2.192,1.356
			            c-0.225,0-1.517-0.534-3.878-1.602c-2.359-1.067-4.973-1.602-7.839-1.602c-3.427,0-6.195,0.704-8.302,2.108
			            c-2.108,1.405-3.162,3.625-3.162,6.658c0,2.586,0.955,4.679,2.866,6.28c1.91,1.602,4.228,2.88,6.955,3.835
			            c2.725,0.956,5.437,2.052,8.134,3.287c2.698,1.237,5.001,3.218,6.912,5.943c1.91,2.726,2.866,6.195,2.866,10.41
			            c0,5.79-1.686,10.158-5.057,13.109c-3.373,2.95-7.839,4.424-13.403,4.424c-5.002,0-9.23-1.048-12.686-3.146
			            C1.728,57.555,0,55.484,0,53.441z" />
            <path d="M46.108,3.627c0-0.822,0.223-1.548,0.674-2.177c0.449-0.629,1.066-0.944,1.855-0.944h34.306
			            c0.786,0,1.404,0.315,1.854,0.944c0.45,0.629,0.674,1.355,0.674,2.177c0,0.876-0.225,1.642-0.674,2.3
			            c-0.45,0.657-1.068,0.985-1.854,0.985H69.372v52.675c0,0.79-0.352,1.41-1.053,1.861c-0.703,0.45-1.532,0.675-2.487,0.675
			            c-0.956,0-1.784-0.225-2.487-0.675c-0.703-0.451-1.054-1.071-1.054-1.861V6.912H48.637c-0.789,0-1.406-0.315-1.855-0.945
			            C46.331,5.338,46.108,4.559,46.108,3.627z" />
            <path d="M98.115,59.594V2.951c0-0.675,0.238-1.236,0.716-1.686c0.477-0.45,1.081-0.702,1.812-0.759h15.426
			            c5.618,0,10.142,1.306,13.571,3.919c3.426,2.614,5.141,6.927,5.141,12.939c0,9.272-4.187,14.751-12.56,16.437l12.476,23.686
			            c0.224,0.395,0.337,0.789,0.337,1.181c0,0.899-0.45,1.727-1.349,2.486c-0.899,0.758-1.854,1.138-2.866,1.138
			            c-1.18,0-2.249-0.928-3.203-2.781l-12.729-24.698h-9.694v24.781c0,0.788-0.352,1.406-1.054,1.854
			            c-0.703,0.45-1.532,0.674-2.486,0.674c-0.956,0-1.785-0.224-2.487-0.674C98.465,61,98.115,60.382,98.115,59.594z M105.195,28.912
			            h10.874c7.755,0,11.632-3.68,11.632-11.042c0-7.305-3.877-10.958-11.632-10.958h-10.874V28.912z" />
            <path d="M144.812,59.173c0-0.112,0.056-0.337,0.168-0.675l17.251-56.038C162.727,0.821,164.16,0,166.529,0
			            c2.368,0,3.801,0.827,4.298,2.479l17.311,56.243c0,0.105,0.014,0.21,0.042,0.316s0.042,0.185,0.042,0.237
			            c0,0.739-0.463,1.398-1.391,1.978c-0.927,0.581-1.925,0.87-2.991,0.87c-1.349,0-2.192-0.531-2.53-1.592l-3.708-12.484h-22.305
			            l-3.695,12.439c-0.332,1.091-1.187,1.637-2.568,1.637c-0.993,0-1.945-0.28-2.856-0.843
			            C145.267,60.719,144.812,60.016,144.812,59.173z M157.051,42.146h18.808l-9.375-31.755L157.051,42.146z" />
            <path d="M196.314,3.627c0-0.822,0.225-1.548,0.675-2.177c0.449-0.629,1.068-0.944,1.855-0.944h34.306
			            c0.787,0,1.405,0.315,1.855,0.944c0.449,0.629,0.674,1.355,0.674,2.177c0,0.876-0.226,1.642-0.674,2.3
			            c-0.451,0.657-1.069,0.985-1.855,0.985h-13.57v52.675c0,0.79-0.352,1.41-1.054,1.861c-0.703,0.45-1.531,0.675-2.486,0.675
			            c-0.956,0-1.784-0.225-2.486-0.675c-0.704-0.451-1.054-1.071-1.054-1.861V6.912h-13.655c-0.787,0-1.406-0.315-1.855-0.945
			            C196.539,5.338,196.314,4.559,196.314,3.627z" />
            <path d="M243.77,3.373c0-0.787,0.463-1.462,1.391-2.024c0.928-0.561,1.896-0.842,2.909-0.842c1.403,0,2.274,0.535,2.612,1.602
			            l14.245,50.07l8.008-30.851c0.393-1.461,1.624-2.192,3.697-2.192c1.96,0,3.135,0.734,3.527,2.198l8.094,30.851l14.165-50.081
			            c0.34-1.064,1.244-1.596,2.714-1.596c1.016,0,1.977,0.282,2.883,0.844c0.901,0.564,1.355,1.24,1.355,2.028
			            c0,0.338-0.029,0.591-0.084,0.76l-16.637,56.044c-0.512,1.632-1.982,2.448-4.414,2.448c-2.547,0-4.021-0.809-4.415-2.427
			            l-7.218-27.845l-7.31,27.823c-0.449,1.633-1.88,2.449-4.294,2.449c-2.417,0-3.877-0.814-4.381-2.444L243.939,4.13
			            C243.825,3.793,243.77,3.541,243.77,3.373z" />
	            </g>
            <path id="bg-one" fill="#333333" d="M499.97,93.815c0,8.426-6.833,15.259-15.26,15.259h-63.58c-8.427,0-15.259-6.833-15.259-15.259
		            V73.469c0-8.428,6.832-15.259,15.259-15.259h63.58c8.427,0,15.26,6.832,15.26,15.259V93.815z" />
            <g id="one">
            <path fill="#FFFFFF" d="M417.314,89.865V77.243c0-3.159,0.766-5.472,2.401-6.94c1.636-1.467,3.796-2.202,6.535-2.202
			            c2.742,0,4.839,0.734,6.487,2.202c1.648,1.468,2.379,3.781,2.379,6.94v12.622c0,3.16-0.742,5.473-2.392,6.94
			            c-1.648,1.468-3.803,2.202-6.541,2.202c-2.74,0-4.853-0.734-6.491-2.202C418.061,95.338,417.314,93.024,417.314,89.865z
			             M421.13,89.865c0,3.97,1.632,5.955,5.295,5.955c1.761,0,2.794-0.495,3.761-1.489c0.964-0.992,1.118-2.48,1.118-4.466V77.243
			            c0-1.985-0.254-3.474-1.218-4.466c-0.967-0.992-2.015-1.489-3.777-1.489c-3.66,0-5.179,1.985-5.179,5.955V89.865z" />
            <path fill="#FFFFFF" d="M442.747,97.497v-28.18c0-0.811,0.733-1.216,1.907-1.216c0.589,0,1.157,0.176,1.564,0.524
			            c0.405,0.35,0.88,0.917,1.27,1.699l10.519,20.422V69.317c0-0.391,0.137-0.692,0.486-0.901c0.349-0.21,0.74-0.315,1.217-0.315
			            c0.476,0,1.061,0.105,1.411,0.315c0.351,0.209,0.7,0.51,0.7,0.901v28.18c0,0.392-0.359,0.699-0.71,0.923s-0.854,0.335-1.328,0.335
			            c-0.895,0-1.685-0.531-2.271-1.593l-10.95-21.093v21.428c0,0.392-0.175,0.699-0.524,0.923c-0.351,0.224-0.761,0.335-1.234,0.335
			            c-0.477,0-1.036-0.111-1.386-0.335S442.747,97.888,442.747,97.497z" />
            <path fill="#FFFFFF" d="M469.452,97.497V69.358c0-0.391,0.186-0.557,0.506-0.781c0.32-0.223,0.718-0.194,1.138-0.194h14.929
			            c0.391,0,0.693,0.013,0.901,0.32c0.209,0.308,0.315,0.601,0.315,1.02c0,0.448-0.111,0.616-0.335,0.937
			            c-0.226,0.321-0.519,0.266-0.882,0.266h-12.759v11.445h6.302c0.362,0,0.655-0.069,0.879,0.225
			            c0.224,0.293,0.335,0.542,0.335,0.961c0,0.364-0.104,0.658-0.313,0.952c-0.211,0.293-0.512,0.406-0.901,0.406h-6.302v10.173
			            h12.759c0.363,0,0.656,0.402,0.882,0.722c0.224,0.322,0.335,0.826,0.335,1.273c0,0.419-0.106,0.917-0.315,1.224
			            c-0.208,0.308-0.511,0.595-0.901,0.595h-14.929c-0.42,0-0.817-0.185-1.138-0.409C469.638,98.27,469.452,97.888,469.452,97.497z" />
	        </g>
        </svg>
    </g>
    <g id="stratws">
        <svg viewBox="0 0 500 131.382" preserveAspectRatio="xMinYMin meet">
            <path id="s-siteware" d="M416.771,111.769c-7.894,2.592-11.882-0.445-13.27-3.208c1.517-1.428,5.006-4.297,13.518-9.522
		        c3.969-2.461,9.85-5.863,17.462-10.185C429.563,101.045,424.592,109.202,416.771,111.769 M457.867,52.682
		        c-0.156-15.229-2.858-30.353-8.931-37.628c-3.796-4.558-8.116-5.644-11.051-5.741c-6.64-0.237-11.948,3.555-23.481,11.936
		        c-14.41,10.462-41.231,29.945-92.225,57.113c-68.954,36.758-121.246,34.348-146.232,29.699
		        c-34.739-6.258-57.178-27.911-63.51-34.701l-8.21,18.935c3.432,4.493,18.503,21.792,51.599,31.897
		        c5.747,1.939,17.193,5.042,33.27,6.43c0.794,0.08,1.548,0.199,2.348,0.266v-0.045c4.382,0.331,8.988,0.539,14.034,0.539
		        c31.148,0,74.453-7.239,126.357-34.909c52.259-27.844,79.81-47.859,94.619-58.627c2.975-2.142,5.998-4.341,8.35-5.915
		        c1.882,6.327,3.383,18.942,2.046,32.821c-2.551,1.441-5.031,2.849-7.382,4.165c-9.325,5.244-17.379,9.753-23.087,13.27
		        c-7.853,4.831-25.43,15.792-18.167,33.718c4.902,12.073,19.042,17.792,33.854,12.925c12.114-3.967,27.471-16.146,33.707-51.209
		        c13.98-8.002,30.492-17.907,43.207-26.577l0.458-25.84C490.286,35.133,477.852,40.895,457.867,52.682" />
                    <g id="stratws-text">
                    <path d="M0,64.104c0-1.078,0.388-2.123,1.162-3.134c0.775-1.011,1.634-1.518,2.579-1.518c0.607,0,1.381,0.422,2.325,1.265
			        c0.944,0.844,1.922,1.786,2.933,2.831c1.011,1.046,2.594,1.99,4.752,2.832c2.156,0.841,4.583,1.264,7.279,1.264
			        c4.381,0,7.819-1.063,10.314-3.186c2.492-2.124,3.741-5.241,3.741-9.352c0-3.708-1.147-6.724-3.438-9.05
			        c-2.293-2.325-5.056-4.095-8.292-5.308c-3.235-1.214-6.488-2.511-9.757-3.893c-3.271-1.381-6.05-3.504-8.341-6.371
			        C2.965,27.62,1.82,23.929,1.82,19.414c0-3.543,0.673-6.626,2.022-9.249c1.347-2.623,3.15-4.6,5.41-5.929
			        c2.257-1.329,4.601-2.299,7.027-2.913c2.426-0.612,5.02-0.919,7.785-0.919c4.179,0,8.172,0.606,11.981,1.817
			        c3.808,1.211,5.713,2.891,5.713,5.036c0,0.948-0.337,1.965-1.01,3.049c-0.675,1.083-1.552,1.625-2.63,1.625
			        c-0.269,0-1.819-0.641-4.651-1.921c-2.831-1.281-5.965-1.921-9.403-1.921c-4.113,0-7.431,0.845-9.959,2.528
			        c-2.527,1.685-3.792,4.347-3.792,7.988c0,3.101,1.146,5.612,3.438,7.533c2.291,1.921,5.071,3.455,8.342,4.6
			        c3.269,1.148,6.521,2.461,9.757,3.944c3.236,1.484,5.999,3.86,8.291,7.128c2.291,3.271,3.438,7.432,3.438,12.487
			        c0,6.944-2.022,12.185-6.066,15.724c-4.045,3.539-9.404,5.307-16.076,5.307c-6.001,0-11.072-1.256-15.218-3.775
			        C2.072,69.039,0,66.553,0,64.104z" />
                    <path d="M55.308,4.351c0-0.986,0.268-1.856,0.809-2.612c0.538-0.755,1.28-1.132,2.225-1.132h41.152
			        c0.942,0,1.684,0.377,2.224,1.132c0.539,0.755,0.809,1.625,0.809,2.612c0,1.05-0.27,1.969-0.809,2.759
			        c-0.54,0.788-1.281,1.18-2.224,1.18H83.215v63.186c0,0.949-0.423,1.691-1.264,2.233c-0.844,0.539-1.837,0.81-2.983,0.81
			        c-1.147,0-2.141-0.271-2.983-0.81c-0.844-0.542-1.264-1.284-1.264-2.233V8.29H58.342c-0.945,0-1.687-0.377-2.225-1.132
			        C55.576,6.402,55.308,5.469,55.308,4.351z" />
                    <path d="M117.692,71.485V3.538c0-0.809,0.286-1.482,0.859-2.021c0.572-0.539,1.297-0.842,2.174-0.91h18.503
			        c6.74,0,12.166,1.565,16.279,4.7c4.11,3.135,6.167,8.31,6.167,15.521c0,11.123-5.021,17.695-15.065,19.716l14.964,28.413
			        c0.269,0.472,0.405,0.944,0.405,1.416c0,1.08-0.54,2.073-1.618,2.982c-1.08,0.909-2.225,1.366-3.438,1.366
			        c-1.415,0-2.696-1.112-3.841-3.338l-15.268-29.624h-11.628v29.726c0,0.944-0.421,1.686-1.264,2.223
			        c-0.843,0.542-1.837,0.81-2.982,0.81c-1.147,0-2.142-0.269-2.983-0.81C118.113,73.171,117.692,72.429,117.692,71.485z
			         M126.185,34.681h13.044c9.302,0,13.953-4.413,13.953-13.245c0-8.762-4.651-13.146-13.953-13.146h-13.044V34.681z" />
                    <path d="M173.708,70.979c0-0.134,0.066-0.405,0.202-0.81l20.693-67.218C195.196,0.984,196.916,0,199.757,0
			        c2.841,0,4.56,0.992,5.155,2.972l20.766,67.465c0,0.126,0.016,0.253,0.051,0.38c0.034,0.127,0.05,0.221,0.05,0.283
			        c0,0.886-0.556,1.679-1.669,2.374c-1.111,0.696-2.308,1.044-3.588,1.044c-1.619,0-2.629-0.636-3.034-1.911l-4.448-14.975h-26.756
			        l-4.432,14.92c-0.399,1.312-1.425,1.965-3.08,1.965c-1.191,0-2.333-0.335-3.426-1.012
			        C174.253,72.834,173.708,71.989,173.708,70.979z M188.389,50.557h22.56l-11.247-38.092L188.389,50.557z" />
                    <path d="M235.485,4.351c0-0.986,0.27-1.856,0.809-2.612c0.54-0.755,1.281-1.132,2.226-1.132h41.151
			        c0.941,0,1.685,0.377,2.226,1.132c0.538,0.755,0.809,1.625,0.809,2.612c0,1.05-0.271,1.969-0.809,2.759
			        c-0.541,0.788-1.284,1.18-2.226,1.18h-16.279v63.186c0,0.949-0.421,1.691-1.264,2.233c-0.844,0.539-1.836,0.81-2.981,0.81
			        c-1.147,0-2.141-0.271-2.982-0.81c-0.845-0.542-1.265-1.284-1.265-2.233V8.29h-16.38c-0.945,0-1.686-0.377-2.226-1.132
			        C235.755,6.402,235.485,5.469,235.485,4.351z" />
                    <path d="M292.409,4.045c0-0.943,0.558-1.753,1.67-2.429c1.112-0.671,2.274-1.009,3.488-1.009c1.683,0,2.729,0.641,3.134,1.921
			        l17.087,60.059l9.604-37.006c0.473-1.752,1.95-2.628,4.437-2.628c2.352,0,3.76,0.88,4.231,2.636l9.709,37.006l16.99-60.073
			        c0.407-1.276,1.492-1.915,3.257-1.915c1.22,0,2.372,0.338,3.459,1.012c1.08,0.675,1.627,1.488,1.627,2.431
			        c0,0.407-0.037,0.709-0.102,0.912l-19.959,67.227c-0.612,1.959-2.376,2.938-5.293,2.938c-3.057,0-4.822-0.971-5.297-2.911
			        l-8.658-33.402l-8.767,33.375c-0.539,1.959-2.255,2.938-5.153,2.938c-2.897,0-4.648-0.979-5.254-2.934L292.612,4.955
			        C292.476,4.55,292.409,4.247,292.409,4.045z" />
	        </g>
        </svg>
    </g>
</svg>
