<svg version="1.1" xmlns="http://www.w3.org/2000/svg" xmlns:xlink="http://www.w3.org/1999/xlink" xml:space="preserve">
    <g id="stratws-one">
        <svg viewBox="0 0 500 131.382" preserveAspectRatio="xMinYMin meet">
            <path id="s-one-siteware" d="M347.443,93.178c-6.578,2.16-9.904-0.372-11.063-2.674c1.268-1.19,4.176-3.582,11.271-7.938
		            c3.308-2.052,8.21-4.89,14.556-8.492C358.108,84.237,353.963,91.038,347.443,93.178 M381.705,43.918
		            c-0.13-12.696-2.384-25.303-7.447-31.367c-3.163-3.799-6.764-4.705-9.211-4.786c-5.535-0.198-9.96,2.963-19.576,9.95
		            c-12.013,8.723-34.371,24.965-76.884,47.615C211.104,95.972,167.511,93.962,146.68,90.087
		            c-28.961-5.217-47.667-23.269-52.945-28.928l-6.844,15.785c2.86,3.744,15.424,18.167,43.015,26.591
		            c4.792,1.616,14.333,4.202,27.736,5.36c0.662,0.067,1.291,0.166,1.958,0.221v-0.036c3.653,0.275,7.493,0.449,11.699,0.449
		            c25.967,0,62.068-6.035,105.338-29.103c43.566-23.212,66.535-39.898,78.881-48.875c2.479-1.786,5-3.62,6.959-4.931
		            c1.569,5.274,2.822,15.792,1.709,27.362c-2.129,1.201-4.198,2.375-6.154,3.471c-7.774,4.372-14.489,8.131-19.248,11.064
		            c-6.547,4.027-21.199,13.164-15.146,28.107c4.086,10.066,15.873,14.834,28.225,10.776c10.098-3.307,22.901-13.46,28.099-42.692
		            c11.656-6.669,25.42-14.928,36.021-22.155l0.38-21.542C408.731,29.289,398.362,34.092,381.705,43.918" />
            <g id="stratws-one-text">
            <path d="M0,53.441c0-0.899,0.323-1.771,0.969-2.613c0.646-0.843,1.362-1.265,2.149-1.265c0.506,0,1.151,0.353,1.938,1.054
			            c0.787,0.704,1.602,1.49,2.445,2.36c0.843,0.873,2.162,1.659,3.961,2.361c1.798,0.703,3.82,1.054,6.069,1.054
			            c3.652,0,6.518-0.885,8.598-2.655c2.078-1.771,3.119-4.369,3.119-7.797c0-3.09-0.956-5.605-2.866-7.544
			            c-1.912-1.938-4.215-3.414-6.913-4.425c-2.697-1.011-5.409-2.092-8.134-3.245c-2.726-1.152-5.044-2.922-6.954-5.311
			            c-1.911-2.388-2.865-5.465-2.865-9.229c0-2.953,0.56-5.524,1.686-7.71c1.123-2.187,2.626-3.834,4.51-4.941
			            c1.882-1.108,3.835-1.918,5.858-2.429c2.022-0.511,4.186-0.767,6.49-0.767c3.484,0,6.814,0.505,9.989,1.515
			            c3.174,1.011,4.763,2.41,4.763,4.198c0,0.791-0.282,1.638-0.843,2.541c-0.563,0.904-1.293,1.356-2.192,1.356
			            c-0.225,0-1.517-0.534-3.878-1.602c-2.359-1.067-4.973-1.602-7.839-1.602c-3.427,0-6.195,0.704-8.302,2.108
			            c-2.108,1.405-3.162,3.625-3.162,6.658c0,2.586,0.955,4.679,2.866,6.28c1.91,1.602,4.228,2.88,6.955,3.835
			            c2.725,0.956,5.437,2.052,8.134,3.287c2.698,1.237,5.001,3.218,6.912,5.943c1.91,2.726,2.866,6.195,2.866,10.41
			            c0,5.79-1.686,10.158-5.057,13.109c-3.373,2.95-7.839,4.424-13.403,4.424c-5.002,0-9.23-1.048-12.686-3.146
			            C1.728,57.555,0,55.484,0,53.441z" />
            <path d="M46.108,3.627c0-0.822,0.223-1.548,0.674-2.177c0.449-0.629,1.066-0.944,1.855-0.944h34.306
			            c0.786,0,1.404,0.315,1.854,0.944c0.45,0.629,0.674,1.355,0.674,2.177c0,0.876-0.225,1.642-0.674,2.3
			            c-0.45,0.657-1.068,0.985-1.854,0.985H69.372v52.675c0,0.79-0.352,1.41-1.053,1.861c-0.703,0.45-1.532,0.675-2.487,0.675
			            c-0.956,0-1.784-0.225-2.487-0.675c-0.703-0.451-1.054-1.071-1.054-1.861V6.912H48.637c-0.789,0-1.406-0.315-1.855-0.945
			            C46.331,5.338,46.108,4.559,46.108,3.627z" />
            <path d="M98.115,59.594V2.951c0-0.675,0.238-1.236,0.716-1.686c0.477-0.45,1.081-0.702,1.812-0.759h15.426
			            c5.618,0,10.142,1.306,13.571,3.919c3.426,2.614,5.141,6.927,5.141,12.939c0,9.272-4.187,14.751-12.56,16.437l12.476,23.686
			            c0.224,0.395,0.337,0.789,0.337,1.181c0,0.899-0.45,1.727-1.349,2.486c-0.899,0.758-1.854,1.138-2.866,1.138
			            c-1.18,0-2.249-0.928-3.203-2.781l-12.729-24.698h-9.694v24.781c0,0.788-0.352,1.406-1.054,1.854
			            c-0.703,0.45-1.532,0.674-2.486,0.674c-0.956,0-1.785-0.224-2.487-0.674C98.465,61,98.115,60.382,98.115,59.594z M105.195,28.912
			            h10.874c7.755,0,11.632-3.68,11.632-11.042c0-7.305-3.877-10.958-11.632-10.958h-10.874V28.912z" />
            <path d="M144.812,59.173c0-0.112,0.056-0.337,0.168-0.675l17.251-56.038C162.727,0.821,164.16,0,166.529,0
			            c2.368,0,3.801,0.827,4.298,2.479l17.311,56.243c0,0.105,0.014,0.21,0.042,0.316s0.042,0.185,0.042,0.237
			            c0,0.739-0.463,1.398-1.391,1.978c-0.927,0.581-1.925,0.87-2.991,0.87c-1.349,0-2.192-0.531-2.53-1.592l-3.708-12.484h-22.305
			            l-3.695,12.439c-0.332,1.091-1.187,1.637-2.568,1.637c-0.993,0-1.945-0.28-2.856-0.843
			            C145.267,60.719,144.812,60.016,144.812,59.173z M157.051,42.146h18.808l-9.375-31.755L157.051,42.146z" />
            <path d="M196.314,3.627c0-0.822,0.225-1.548,0.675-2.177c0.449-0.629,1.068-0.944,1.855-0.944h34.306
			            c0.787,0,1.405,0.315,1.855,0.944c0.449,0.629,0.674,1.355,0.674,2.177c0,0.876-0.226,1.642-0.674,2.3
			            c-0.451,0.657-1.069,0.985-1.855,0.985h-13.57v52.675c0,0.79-0.352,1.41-1.054,1.861c-0.703,0.45-1.531,0.675-2.486,0.675
			            c-0.956,0-1.784-0.225-2.486-0.675c-0.704-0.451-1.054-1.071-1.054-1.861V6.912h-13.655c-0.787,0-1.406-0.315-1.855-0.945
			            C196.539,5.338,196.314,4.559,196.314,3.627z" />
            <path d="M243.77,3.373c0-0.787,0.463-1.462,1.391-2.024c0.928-0.561,1.896-0.842,2.909-0.842c1.403,0,2.274,0.535,2.612,1.602
			            l14.245,50.07l8.008-30.851c0.393-1.461,1.624-2.192,3.697-2.192c1.96,0,3.135,0.734,3.527,2.198l8.094,30.851l14.165-50.081
			            c0.34-1.064,1.244-1.596,2.714-1.596c1.016,0,1.977,0.282,2.883,0.844c0.901,0.564,1.355,1.24,1.355,2.028
			            c0,0.338-0.029,0.591-0.084,0.76l-16.637,56.044c-0.512,1.632-1.982,2.448-4.414,2.448c-2.547,0-4.021-0.809-4.415-2.427
			            l-7.218-27.845l-7.31,27.823c-0.449,1.633-1.88,2.449-4.294,2.449c-2.417,0-3.877-0.814-4.381-2.444L243.939,4.13
			            C243.825,3.793,243.77,3.541,243.77,3.373z" />
	            </g>
            <path id="bg-one" fill="#333333" d="M499.97,93.815c0,8.426-6.833,15.259-15.26,15.259h-63.58c-8.427,0-15.259-6.833-15.259-15.259
		            V73.469c0-8.428,6.832-15.259,15.259-15.259h63.58c8.427,0,15.26,6.832,15.26,15.259V93.815z" />
            <g id="one">
            <path fill="#FFFFFF" d="M417.314,89.865V77.243c0-3.159,0.766-5.472,2.401-6.94c1.636-1.467,3.796-2.202,6.535-2.202
			            c2.742,0,4.839,0.734,6.487,2.202c1.648,1.468,2.379,3.781,2.379,6.94v12.622c0,3.16-0.742,5.473-2.392,6.94
			            c-1.648,1.468-3.803,2.202-6.541,2.202c-2.74,0-4.853-0.734-6.491-2.202C418.061,95.338,417.314,93.024,417.314,89.865z
			             M421.13,89.865c0,3.97,1.632,5.955,5.295,5.955c1.761,0,2.794-0.495,3.761-1.489c0.964-0.992,1.118-2.48,1.118-4.466V77.243
			            c0-1.985-0.254-3.474-1.218-4.466c-0.967-0.992-2.015-1.489-3.777-1.489c-3.66,0-5.179,1.985-5.179,5.955V89.865z" />
            <path fill="#FFFFFF" d="M442.747,97.497v-28.18c0-0.811,0.733-1.216,1.907-1.216c0.589,0,1.157,0.176,1.564,0.524
			            c0.405,0.35,0.88,0.917,1.27,1.699l10.519,20.422V69.317c0-0.391,0.137-0.692,0.486-0.901c0.349-0.21,0.74-0.315,1.217-0.315
			            c0.476,0,1.061,0.105,1.411,0.315c0.351,0.209,0.7,0.51,0.7,0.901v28.18c0,0.392-0.359,0.699-0.71,0.923s-0.854,0.335-1.328,0.335
			            c-0.895,0-1.685-0.531-2.271-1.593l-10.95-21.093v21.428c0,0.392-0.175,0.699-0.524,0.923c-0.351,0.224-0.761,0.335-1.234,0.335
			            c-0.477,0-1.036-0.111-1.386-0.335S442.747,97.888,442.747,97.497z" />
            <path fill="#FFFFFF" d="M469.452,97.497V69.358c0-0.391,0.186-0.557,0.506-0.781c0.32-0.223,0.718-0.194,1.138-0.194h14.929
			            c0.391,0,0.693,0.013,0.901,0.32c0.209,0.308,0.315,0.601,0.315,1.02c0,0.448-0.111,0.616-0.335,0.937
			            c-0.226,0.321-0.519,0.266-0.882,0.266h-12.759v11.445h6.302c0.362,0,0.655-0.069,0.879,0.225
			            c0.224,0.293,0.335,0.542,0.335,0.961c0,0.364-0.104,0.658-0.313,0.952c-0.211,0.293-0.512,0.406-0.901,0.406h-6.302v10.173
			            h12.759c0.363,0,0.656,0.402,0.882,0.722c0.224,0.322,0.335,0.826,0.335,1.273c0,0.419-0.106,0.917-0.315,1.224
			            c-0.208,0.308-0.511,0.595-0.901,0.595h-14.929c-0.42,0-0.817-0.185-1.138-0.409C469.638,98.27,469.452,97.888,469.452,97.497z" />
	        </g>
        </svg>
    </g>
</svg>
